HIERARCHY
ROOT Hips
{
	OFFSET 0.000000 0.000000 0.000000
	CHANNELS 6 Xposition Yposition Zposition Zrotation Yrotation Xrotation 
	JOINT LeftUpLeg_virtual
	{
		OFFSET 0.000000 0.000000 0.000000
		CHANNELS 3 Zrotation Yrotation Xrotation
		JOINT LeftUpLeg
		{
			OFFSET 10.205400 -3.823500 0.155100
			CHANNELS 3 Zrotation Yrotation Xrotation
			JOINT LeftLeg
			{
				OFFSET 0.708757 -12.982077 0.567790
				CHANNELS 3 Zrotation Yrotation Xrotation
				JOINT LeftFoot
				{
					OFFSET -0.708756 -10.717838 -2.184338
					CHANNELS 3 Zrotation Yrotation Xrotation
					JOINT LeftToeBase
					{
						OFFSET 0.108149 -7.191104 7.560241
						CHANNELS 3 Zrotation Yrotation Xrotation
						End Site
						{
							OFFSET 0.000000 0.000000 0.000000
						}
					}
				}
			}
		}
	}
	JOINT RightUpLeg_virtual
	{
		OFFSET 0.000000 0.000000 0.000000
		CHANNELS 3 Zrotation Yrotation Xrotation
		JOINT RightUpLeg
		{
			OFFSET -10.205400 -3.823500 0.005500
			CHANNELS 3 Zrotation Yrotation Xrotation
			JOINT RightLeg
			{
				OFFSET -0.708756 -12.982134 0.610632
				CHANNELS 3 Zrotation Yrotation Xrotation
				JOINT RightFoot
				{
					OFFSET 0.708754 -10.717769 -1.945823
					CHANNELS 3 Zrotation Yrotation Xrotation
					JOINT RightToeBase
					{
						OFFSET -0.108140 -7.191069 7.372968
						CHANNELS 3 Zrotation Yrotation Xrotation
						End Site
						{
							OFFSET 0.000000 0.000000 0.000000
						}
					}
				}
			}
		}
	}
	JOINT Spine_virtual
	{
		OFFSET 0.000000 0.000000 0.000000
		CHANNELS 3 Zrotation Yrotation Xrotation
		JOINT Spine
		{
			OFFSET 0.000000 6.876099 0.125700
			CHANNELS 3 Zrotation Yrotation Xrotation
			JOINT Spine1
			{
				OFFSET 0.000000 8.022060 0.146608
				CHANNELS 3 Zrotation Yrotation Xrotation
				JOINT Spine2
				{
					OFFSET 0.000000 9.168068 0.167552
					CHANNELS 3 Zrotation Yrotation Xrotation
					JOINT Neck_virtual
					{
						OFFSET 0.000000 0.000000 0.000000
						CHANNELS 3 Zrotation Yrotation Xrotation
						JOINT Neck
						{
							OFFSET 0.000000 10.314075 0.188496
							CHANNELS 3 Zrotation Yrotation Xrotation
							JOINT Head
							{
								OFFSET 0.000000 7.643700 -2.377400
								CHANNELS 3 Zrotation Yrotation Xrotation
								End Site
								{
									OFFSET 0.000000 0.000000 0.000000
								}
							}
						}
					}
					JOINT LeftShoulder_virtual
					{
						OFFSET 0.000000 0.000000 0.000000
						CHANNELS 3 Zrotation Yrotation Xrotation
						JOINT LeftShoulder
						{
							OFFSET 4.392200 8.824978 0.174984
							CHANNELS 3 Zrotation Yrotation Xrotation
							JOINT LeftArm
							{
								OFFSET 8.771219 -2.981674 -0.026999
								CHANNELS 3 Zrotation Yrotation Xrotation
								JOINT LeftForeArm
								{
									OFFSET 8.512804 0.000000 -0.000000
									CHANNELS 3 Zrotation Yrotation Xrotation
									JOINT LeftHand
									{
										OFFSET 18.484802 0.000000 -0.000000
										CHANNELS 3 Zrotation Yrotation Xrotation
										End Site
										{
											OFFSET 0.000000 0.000000 0.000000
										}
									}
								}
							}
						}
					}
					JOINT RightShoulder_virtual
					{
						OFFSET 0.000000 0.000000 0.000000
						CHANNELS 3 Zrotation Yrotation Xrotation
						JOINT RightShoulder
						{
							OFFSET -4.392200 8.824993 0.141379
							CHANNELS 3 Zrotation Yrotation Xrotation
							JOINT RightArm
							{
								OFFSET -8.771282 -2.981682 -0.094208
								CHANNELS 3 Zrotation Yrotation Xrotation
								JOINT RightForeArm
								{
									OFFSET -8.494598 0.000000 0.000000
									CHANNELS 3 Zrotation Yrotation Xrotation
									JOINT RightHand
									{
										OFFSET -18.483803 0.000000 0.000001
										CHANNELS 3 Zrotation Yrotation Xrotation
										End Site
										{
											OFFSET 0.000000 0.000000 0.000000
										}
									}
								}
							}
						}
					}
				}
			}
		}
	}
}
MOTION
Frames: 7
Frame Time: 0.033333
0.767002 36.289261 7.779839 179.685215 2.721408 -179.447142 -1.345703 -4.314739 10.267496 -10.439261 0.532390 -17.611165 13.143513 2.502440 19.184632 -2.357863 -2.296544 8.837794 0.000000 0.000000 0.000000 2.171406 -1.209954 7.224429 -1.118668 1.203143 -13.779499 -5.596687 2.016706 16.936419 6.111009 1.799340 7.668457 0.000000 0.000000 0.000000 1.390818 0.161972 -2.691605 -5.023107 3.413954 -3.912671 0.340609 -2.410162 3.827686 0.020698 0.072917 0.166295 -0.119425 -0.647939 6.071967 0.957151 -2.215754 13.247867 0.000000 0.000000 0.000000 1.117954 0.196590 3.039449 4.715265 -2.723358 -4.103320 -15.696470 26.084622 -33.784452 0.957982 -42.265217 -5.401965 0.000000 0.000000 0.000000 -1.881300 0.847660 2.761048 3.522433 -10.802726 -6.798273 20.843775 -28.333759 -40.682314 -0.049130 36.870095 -4.201972 0.000000 0.000000 0.000000 
0.770802 36.297615 7.779360 179.494776 2.678533 -179.158075 -1.208732 -4.202665 10.633460 -10.319264 0.288270 -17.190659 13.076162 1.607076 19.411763 -2.753353 -2.637200 9.446264 0.000000 0.000000 0.000000 1.830909 -1.114864 7.149436 -0.838582 0.722695 -13.831530 -5.651564 1.331328 17.121169 5.540028 1.295974 7.725179 0.000000 0.000000 0.000000 1.268854 0.173794 -2.854097 -5.114976 3.409736 -4.046004 0.317661 -2.409704 3.733565 0.059806 0.071139 0.166476 -0.123807 -0.601727 6.118398 0.962547 -2.208668 13.211341 0.000000 0.000000 0.000000 1.091326 0.198375 3.147174 4.659146 -2.734083 -4.116127 -15.655378 26.018503 -33.654821 0.929505 -42.254532 -5.334116 0.000000 0.000000 0.000000 -1.888926 0.847760 2.862777 3.542875 -10.812788 -6.784588 20.817401 -28.332697 -40.624883 -0.001503 36.894288 -4.153244 0.000000 0.000000 0.000000 
0.776525 36.295639 7.776717 179.404071 2.692887 -179.144387 -1.279204 -4.194740 10.627858 -10.321540 0.292055 -17.195541 13.076387 1.610917 19.408626 -2.760543 -2.635942 9.463271 0.000000 0.000000 0.000000 1.770374 -1.091571 7.136127 -0.869337 0.747345 -13.810933 -5.605555 1.311465 17.100227 5.484019 1.263173 7.726821 0.000000 0.000000 0.000000 1.179363 0.193938 -2.891205 -5.160507 3.407423 -4.048032 0.321697 -2.410050 3.731980 0.074639 0.074821 0.199427 -0.193401 -0.504195 6.113574 0.861478 -2.289348 13.213533 0.000000 0.000000 0.000000 1.095202 0.177837 3.141199 4.619876 -2.754552 -4.062834 -15.712263 26.016112 -33.730917 0.860532 -42.281897 -5.261850 0.000000 0.000000 0.000000 -1.894866 0.830971 2.802531 3.569548 -10.840270 -6.746508 20.797562 -28.288127 -40.573646 -0.045027 36.886051 -4.203049 0.000000 0.000000 0.000000 
0.779126 36.294044 7.774741 179.413688 2.667134 -179.139524 -1.262689 -4.197794 10.617032 -10.326498 0.301515 -17.201336 13.087617 1.584892 19.407617 -2.776811 -2.641395 9.478524 0.000000 0.000000 0.000000 1.770737 -1.099970 7.121192 -0.864976 0.737390 -13.782849 -5.582349 1.302321 17.085921 5.467431 1.255502 7.718133 0.000000 0.000000 0.000000 1.198785 0.189503 -2.915033 -5.178403 3.411980 -4.034120 0.298768 -2.421709 3.718719 0.054046 0.053379 0.167307 -0.166844 -0.581462 6.101182 0.887522 -2.271076 13.180574 0.000000 0.000000 0.000000 1.112621 0.197672 3.099621 4.533244 -2.797365 -3.956511 -15.858876 25.972257 -33.726156 1.072454 -42.392095 -5.490092 0.000000 0.000000 0.000000 -1.856638 0.885340 2.836107 3.587375 -10.794579 -6.623347 20.813605 -28.358320 -40.514674 -0.119083 36.918303 -4.267619 0.000000 0.000000 0.000000 
0.779316 36.294655 7.772389 179.638975 2.672849 -179.112299 -1.117913 -4.151776 10.609712 -10.327147 0.371463 -17.219863 13.072268 1.503844 19.386343 -2.779520 -2.638289 9.466456 0.000000 0.000000 0.000000 1.928786 -1.073948 7.108031 -0.758071 0.701370 -13.759511 -5.663794 1.127984 17.120115 5.591025 1.379717 7.653224 0.000000 0.000000 0.000000 1.338084 0.171581 -2.938695 -5.090947 3.420093 -4.025271 0.329752 -2.388317 3.725900 0.058641 0.068566 0.208607 -0.154226 -0.576396 6.078379 0.983140 -2.199018 13.155628 0.000000 0.000000 0.000000 1.043685 0.236822 3.007459 4.539665 -2.771341 -4.094548 -15.876975 25.853028 -33.530901 0.983396 -42.334527 -5.382982 0.000000 0.000000 0.000000 -1.908759 0.884054 2.688256 3.628611 -10.802217 -6.606083 20.856526 -28.308098 -40.565757 -0.169180 37.027647 -4.303114 0.000000 0.000000 0.000000 
0.781080 36.290386 7.774203 179.368991 2.581086 -179.152064 -1.275994 -4.233473 10.619705 -10.381803 0.271996 -17.219897 13.146615 1.535805 19.395968 -2.792785 -2.643910 9.537902 0.000000 0.000000 0.000000 1.734513 -1.159780 7.126529 -0.915548 0.772241 -13.733920 -5.495507 1.267440 17.060400 5.413755 1.197026 7.723954 0.000000 0.000000 0.000000 1.166816 0.114631 -2.961642 -5.238832 3.365872 -4.000108 0.290713 -2.453949 3.742910 0.062924 0.008899 0.195636 -0.199132 -0.445520 6.090993 0.834673 -2.295866 13.306414 0.000000 0.000000 0.000000 1.124539 0.251220 3.129980 4.472588 -2.717872 -3.896753 -15.967688 26.028680 -33.546174 0.915811 -42.336303 -5.328270 0.000000 0.000000 0.000000 -1.875623 0.976026 2.896520 3.616328 -10.704783 -6.675996 20.814677 -28.308346 -40.370608 -0.116379 36.959666 -4.219115 0.000000 0.000000 0.000000 
0.777665 36.292915 7.779101 179.566192 2.597200 -179.100483 -1.145509 -4.239634 10.619495 -10.401564 0.325495 -17.269099 13.162315 1.468533 19.386242 -2.770563 -2.636140 9.541619 0.000000 0.000000 0.000000 1.850011 -1.154378 7.098102 -0.821852 0.752758 -13.780457 -5.586333 1.178743 17.079060 5.512206 1.282787 7.697776 0.000000 0.000000 0.000000 1.289601 0.119740 -2.996086 -5.180441 3.427324 -4.002356 0.307351 -2.385743 3.808490 0.050937 0.051346 0.180815 -0.137840 -0.599632 6.030557 0.964168 -2.210687 13.124705 0.000000 0.000000 0.000000 1.062448 0.253280 2.998047 4.479413 -2.785361 -4.007429 -16.034431 25.914014 -33.532592 1.002378 -42.380853 -5.402383 0.000000 0.000000 0.000000 -1.899125 0.878177 2.633127 3.622556 -10.782205 -6.551847 20.852892 -28.253223 -40.494388 -0.157704 37.068615 -4.235017 0.000000 0.000000 0.000000 
